{"title":"Marmaduke 2010 CAMRip XviD.FEEL-FREE","uid":5641854,"size":817766131,"categoryP":"video","categoryS":"movies","magnet":"?xt=urn:btih:a5b80c3694417edf215f075d7e24df3614e601c1&amp;dn=Marmaduke+2010+CAMRip+XviD.FEEL-FREE&amp;tr=udp%3A%2F%2Ftracker.openbittorrent.com%3A80&amp;tr=udp%3A%2F%2Fopen.demonii.com%3A1337&amp;tr=udp%3A%2F%2Ftracker.coppersurfer.tk%3A6969&amp;tr=udp%3A%2F%2Fexodus.desync.com%3A6969","seeders":0,"leechers":0,"uploader":"hiest","files":5,"time":1277142203,"description":"Genre:Comedy | Family\nLanguage:English\nIMDb:http://www.imdb.com/title/tt1392197/\nSource Video:NoGrp.Thanks\nEncoder: Tony2\n..............................................\nGeneral\nComplete name : Marmaduke 2010 CAMRip XviD.FEEL-FREE\nFormat : AVI\nFormat/Info : Audio Video Interleave\nFile size : 780 MiB\nDuration : 1h 21mn\nOverall bit rate : 1 342 Kbps\n...............................................\nVideo\nFormat : xvid\nCodec ID : xvid\nDuration : 1h 21mn\nBit rate : 1 200 Kbps\nWidth : 704 pixels\nHeight : 304 pixels\nDisplay aspect ratio : 2.35:1\nFrame rate : 29.970 fps\nResolution : 24 bits\nBits/(Pixel*Frame) : 0.187\nStream size : 697 MiB (89%)\n...............................................\nAudio\nID : 1\nFormat : MPEG Audio\nFormat version : Version 1\nFormat profile : Layer 3\nFormat settings, Mode : Joint stereo / MS Stereo\nCodec ID : 55\nCodec ID/Hint : MP3\nDuration : 1h 21mn\nBit rate mode : Constant\nBit rate : 128 Kbps\nChannel(s) : 2 channels\nSampling rate : 48.0 KHz\nResolution : 16 bits\nStream size : 74.4 MiB (10%)\nAlignment : Aligned on interleaves\nInterleave, duration : 24 ms (0.72 video frame)\nInterleave, preload duration : 24 ms\n...............................................\nPlot: \nA suburban family moves to a new neighborhood with their large yet lovable Great Dane, who has a tendency to wreak havoc in his own oblivious way.\n...................................................\nScreens:\n &lt;a href=&quot;\nhttp://postimg.com/image/17000/16743.jpg&quot; rel=&quot;nofollow&quot; target=&quot;_NEW&quot;&gt;\nhttp://postimg.com/image/17000/16743.jpg&lt;/a&gt;\n\n.......................................................","torrent":{"xt":"urn:btih:a5b80c3694417edf215f075d7e24df3614e601c1","amp;dn":"Marmaduke+2010+CAMRip+XviD.FEEL-FREE","amp;tr":["udp%3A%2F%2Ftracker.openbittorrent.com%3A80","udp%3A%2F%2Fopen.demonii.com%3A1337","udp%3A%2F%2Ftracker.coppersurfer.tk%3A6969","udp%3A%2F%2Fexodus.desync.com%3A6969"],"infoHash":"a5b80c3694417edf215f075d7e24df3614e601c1","infoHashBuffer":{"type":"Buffer","data":[165,184,12,54,148,65,126,223,33,95,7,93,126,36,223,54,20,230,1,193]},"announce":[],"urlList":[]}}